<svg xmlns="http://www.w3.org/2000/svg" viewBox="0 0 500 500"><g id="freepik--background-simple--inject-158"><path d="M353.13,175c-19.47-46-69.49-79.13-117.94-93.71C109.74,43,52.64,220.61,92,259.41c33.44,42.08,74.6,16.52,105.07,25.83C368.55,338.35,370,213.22,353.13,175Z" style="fill:#6246EA"></path><path d="M353.13,175c-19.47-46-69.49-79.13-117.94-93.71C109.74,43,52.64,220.61,92,259.41c33.44,42.08,74.6,16.52,105.07,25.83C368.55,338.35,370,213.22,353.13,175Z" style="fill:#fff;opacity:0.9"></path></g><g id="freepik--Message--inject-158"><path d="M400.19,224.27l7,81.08c.56,6.6-3.47,12.39-9,12.86l-153.86,13.2c-5.5.48-10.47-4.54-11-11.13l-7-81.09a13.62,13.62,0,0,1,.35-4.54c1.1-4.53,4.44-8,8.62-8.31l153.86-13.21c4.17-.36,8,2.45,9.91,6.71A13.88,13.88,0,0,1,400.19,224.27Z" style="fill:#6246EA"></path><path d="M400.19,224.27l7,81.08c.56,6.6-3.47,12.39-9,12.86l-153.86,13.2c-5.5.48-10.47-4.54-11-11.13l-7-81.09a13.62,13.62,0,0,1,.35-4.54c1.1-4.53,4.44-8,8.62-8.31l153.86-13.21c4.17-.36,8,2.45,9.91,6.71A13.88,13.88,0,0,1,400.19,224.27Z" style="opacity:0.1"></path><rect x="417.6" y="272.08" width="1.1" height="3.68" transform="translate(-29.86 52.18) rotate(-6.89)" style="fill:#6246EA"></rect><rect x="416.07" y="254.41" width="1.1" height="13.71" transform="translate(-28.35 51.9) rotate(-6.89)" style="fill:#6246EA"></rect><path d="M407.08,209.77l10.06,83.16c.81,6.76-3.13,12.86-8.77,13.54L250.58,325.56c-5.64.68-10.93-4.3-11.75-11.07l-10.06-83.15a14.34,14.34,0,0,1,.2-4.69c1-4.69,4.28-8.34,8.57-8.86l157.79-19.08c4.29-.52,8.37,2.23,10.44,6.55A14.31,14.31,0,0,1,407.08,209.77Z" style="fill:#6246EA"></path><path d="M405.77,205.26,334.2,253.45A26.44,26.44,0,0,1,310,256.38l-81-29.73c1-4.69,4.28-8.34,8.57-8.86l157.79-19.08C399.62,198.19,403.7,200.94,405.77,205.26Z" style="opacity:0.1"></path><path d="M379.07,223.23l-20.56,13.84-6.73,4.54L334.2,253.45a26.34,26.34,0,0,1-23.61,3.14l-.63-.21-9.86-3.62-22.2-8.15-10.38-3.81-11.76-4.32-.85-20.79L253,169.49l90.33-3.67,34.43,26.09.36,8.87Z" style="fill:#6246EA"></path><path d="M379.07,223.23l-20.56,13.84-6.73,4.54L334.2,253.45a26.34,26.34,0,0,1-23.61,3.14l-.63-.21-9.86-3.62-22.2-8.15-10.38-3.81-11.76-4.32-.85-20.79L253,169.49l90.33-3.67,34.43,26.09.36,8.87Z" style="fill:#fafafa;opacity:0.7000000000000001"></path><g style="opacity:0.9"><path d="M366.34,201.1l-100,4.06a2.14,2.14,0,0,1-2.22-2h0a2.14,2.14,0,0,1,2-2.21l100-4.06a2.14,2.14,0,0,1,2.22,2h0A2.13,2.13,0,0,1,366.34,201.1Z" style="fill:#fff"></path><path d="M366.87,214.39l-100,4.06a2.14,2.14,0,0,1-2.22-2h0a2.15,2.15,0,0,1,2-2.22l100-4.06a2.15,2.15,0,0,1,2.22,2h0A2.16,2.16,0,0,1,366.87,214.39Z" style="fill:#fff"></path><path d="M367.41,227.67l-100,4.06a2.14,2.14,0,0,1-2.22-2h0a2.13,2.13,0,0,1,2-2.21l100-4.06a2.13,2.13,0,0,1,2.21,2h0A2.13,2.13,0,0,1,367.41,227.67Z" style="fill:#fff"></path><path d="M358.51,237.07l-6.73,4.54-73.88,3-10.38-3.81a1.09,1.09,0,0,1,.26,0Z" style="fill:#fff"></path><path d="M331.14,253.62v.08a2.14,2.14,0,0,1-2,2.14l-18.51.75-.63-.21-9.86-3.62,28.83-1.18A2.14,2.14,0,0,1,331.14,253.62Z" style="fill:#fff"></path></g><polygon points="377.8 191.91 353.88 190.88 343.37 165.82 377.8 191.91" style="fill:#263238;opacity:0.1"></polygon><polygon points="377.8 191.91 354.59 187.94 343.37 165.82 377.8 191.91" style="fill:#6246EA"></polygon><path d="M423.81,94.93c0,20.34-22.29,40.33-25.63,40.33s-25.63-20-25.63-40.33c0-13.63,11.47-24.69,25.63-24.69S423.81,81.3,423.81,94.93Z" style="fill:#6246EA"></path><path d="M393.42,89.86c-4.64,5.09-10.94,6.91-14.07,4s-1.91-9.29,2.72-14.38,10.94-6.91,14.08-4.06S398.06,84.77,393.42,89.86Z" style="fill:#fff;opacity:0.1"></path><path d="M379.75,110.35c-.61-1.52-.45-3,.36-3.34s2,.64,2.57,2.16.45,3-.36,3.33S380.36,111.86,379.75,110.35Z" style="fill:#fff;opacity:0.1"></path><path d="M397.08,199.26a.42.42,0,0,1-.41-.41,6.26,6.26,0,0,1,1.16-3.77,5.93,5.93,0,0,0,0-6.68,6.71,6.71,0,0,1,0-7.54,5.91,5.91,0,0,0,0-6.67,6.69,6.69,0,0,1,0-7.53,5.91,5.91,0,0,0,0-6.67,6.69,6.69,0,0,1,0-7.53,5.91,5.91,0,0,0,0-6.67,6.69,6.69,0,0,1,0-7.53,5.5,5.5,0,0,0,1-3.33.42.42,0,0,1,.83,0,6.25,6.25,0,0,1-1.16,3.76,5.56,5.56,0,0,0-1,3.34,5.5,5.5,0,0,0,1,3.33,6.69,6.69,0,0,1,0,7.53,5.87,5.87,0,0,0,0,6.67,6.69,6.69,0,0,1,0,7.53,5.87,5.87,0,0,0,0,6.67,6.69,6.69,0,0,1,0,7.53,5.88,5.88,0,0,0,0,6.68,6.71,6.71,0,0,1,0,7.54,5.51,5.51,0,0,0-1,3.34A.41.41,0,0,1,397.08,199.26Z" style="fill:#263238"></path><path d="M398.18,134.3c-.79,0-6,4.7-6,9.48H404.2C404.2,139,399,134.3,398.18,134.3Z" style="fill:#6246EA"></path><rect x="396.65" y="134.46" width="3.06" height="0.95" rx="0.35" style="fill:#263238"></rect><path d="M263,113.94c0,20.33-22.29,40.32-25.63,40.32s-25.63-20-25.63-40.32c0-13.64,11.47-24.7,25.63-24.7S263,100.3,263,113.94Z" style="fill:#263238"></path><ellipse cx="227.54" cy="104.52" rx="12.47" ry="7.67" transform="translate(-2.95 202.36) rotate(-47.67)" style="fill:#fff;opacity:0.1"></ellipse><path d="M219.54,130.18c-.61-1.52-.45-3,.36-3.34s2,.64,2.57,2.16.45,3-.36,3.34S220.15,131.7,219.54,130.18Z" style="fill:#fff;opacity:0.1"></path><path d="M236.23,218.26a.41.41,0,0,1-.41-.41,6.26,6.26,0,0,1,1.16-3.77,5.93,5.93,0,0,0,0-6.68,6.71,6.71,0,0,1,0-7.54,5.5,5.5,0,0,0,1-3.33,5.56,5.56,0,0,0-1-3.34,6.69,6.69,0,0,1,0-7.53,5.5,5.5,0,0,0,1-3.33,5.56,5.56,0,0,0-1-3.34,6.69,6.69,0,0,1,0-7.53,5.9,5.9,0,0,0,0-6.66,6.69,6.69,0,0,1,0-7.53,5.56,5.56,0,0,0,1-3.34.42.42,0,0,1,.41-.41.41.41,0,0,1,.41.41,6.28,6.28,0,0,1-1.15,3.77,5.85,5.85,0,0,0,0,6.66,6.74,6.74,0,0,1,0,7.53,5.56,5.56,0,0,0-1,3.34,5.5,5.5,0,0,0,1,3.33,6.74,6.74,0,0,1,0,7.53,5.56,5.56,0,0,0-1,3.34,5.5,5.5,0,0,0,1,3.33,6.74,6.74,0,0,1,0,7.53,5.88,5.88,0,0,0,0,6.68,6.75,6.75,0,0,1,0,7.54,5.54,5.54,0,0,0-1,3.34A.41.41,0,0,1,236.23,218.26Z" style="fill:#6246EA"></path><path d="M237.33,153.31c-.79,0-6,4.69-6,9.47h12C243.35,158,238.11,153.31,237.33,153.31Z" style="fill:#263238"></path><rect x="235.8" y="153.46" width="3.06" height="0.95" rx="0.35" style="fill:#6246EA"></rect><circle cx="401.98" cy="206.84" r="14.89" transform="translate(-34 326.39) rotate(-42.56)" style="fill:#de5753"></circle><path d="M404.94,199.67v15H400.8v-9.82a12.82,12.82,0,0,1-1.95,1.24,15.93,15.93,0,0,1-2.36.9v-3.35a9.93,9.93,0,0,0,3.25-1.62,6.7,6.7,0,0,0,1.81-2.33Z" style="fill:#fff"></path></g></svg>